<svg width="389" height="538" viewBox="0 0 389 538" fill="none" xmlns="http://www.w3.org/2000/svg">
<path opacity="0.81" d="M22.1074 474.969C19.8297 470.969 22.7183 466 27.3213 466H354.428C359.086 466 361.968 471.077 359.579 475.076L327.529 528.742C324.1 534.484 317.905 538 311.217 538H72.5331C63.5483 538 55.2545 533.179 50.8085 525.371L22.1074 474.969Z" fill="#1E2020"/>
<path d="M15.0786 116.076L42.6672 117.766L27.5183 342.001L2.97976 319.472L15.0786 116.076Z" fill="#D9D9D9"/>
<path d="M369.5 102L354 107.448L359.333 339.082L385.5 318.5L369.5 102Z" fill="#D9D9D9"/>
<path d="M369 225.5C352.5 307 369.098 447 357.5 447C345.902 447 305 301.209 305 214.5C305 127.791 345.902 46 357.5 46C376 77.5 376 159 369 225.5Z" fill="#D9D9D9"/>
<path d="M13 319.5C9.39581 408.773 48.7672 443 60.5 443C72.2328 443 82 301.896 82 215.293C82 128.691 40.6224 47 28.8895 47C5 117 19.5 158.5 13 319.5Z" fill="#D9D9D9"/>
<path d="M360.964 68C360.964 87.33 334.966 85.5 316.464 85.5C297.963 85.5 282.964 69.83 282.964 50.5C282.964 31.17 297.963 15.5 316.464 15.5C334.966 15.5 365.5 38.5 360.964 68Z" fill="#D9D9D9"/>
<path d="M26.4536 68.2147C26.4536 87.8079 52.4509 85.953 70.9516 85.953C89.4522 85.953 104.45 70.0696 104.45 50.4765C104.45 30.8834 89.4522 15 70.9516 15C52.4509 15 21.9181 38.3131 26.4536 68.2147Z" fill="#D9D9D9"/>
<path d="M43.3898 38.3755C43.1769 32.7094 47.7127 28 53.3828 28H332.617C338.287 28 342.823 32.7094 342.61 38.3755L330.362 364.375C330.16 369.748 325.745 374 320.369 374H65.6313C60.2546 374 55.8403 369.748 55.6384 364.375L43.3898 38.3755Z" fill="#EEEDF1"/>
<path d="M387.23 316L386.311 331.717L293 391.5L387.23 316Z" fill="#265782"/>
<path d="M330 360.5V368H310L322.821 364.182L330 360.5Z" fill="#386997"/>
<path d="M2.00003 320.327L2.00003 336.5L97.0494 393.993L2.00003 320.327Z" fill="#265782"/>
<path d="M55 359.5L56 368H75L62.8205 364.182L55 359.5Z" fill="#386997"/>
<path d="M2 330L58.3077 366L81.6676 500.968C83.0019 508.678 73.6171 513.521 68.1061 507.967L21.6808 461.182C11.9907 451.417 6.31199 438.375 5.76506 424.628L2 330Z" fill="#265782"/>
<path d="M2 330L58.3077 366L81.6676 500.968C83.0019 508.678 73.6171 513.521 68.1061 507.967L21.6808 461.182C11.9907 451.417 6.31199 438.375 5.76506 424.628L2 330Z" fill="#265782"/>
<path d="M342.5 37.5C342.5 57.1061 299.378 71 197.302 71C95.2256 71 44 57.1061 44 37.5C44 17.8939 70 3.5 197.302 0C308 0 342.5 17.8939 342.5 37.5Z" fill="#EEEDF1"/>
<ellipse cx="191" cy="22" rx="19" ry="13" fill="#0E0404"/>
<ellipse cx="191" cy="21" rx="14" ry="10" fill="#BBBBBB"/>
<path d="M386 330L329.692 366L306.332 500.968C304.998 508.678 314.383 513.521 319.894 507.967L366.319 461.182C376.009 451.417 381.688 438.375 382.235 424.628L386 330Z" fill="#265782"/>
<path d="M386 330L329.692 366L306.332 500.968C304.998 508.678 314.383 513.521 319.894 507.967L366.319 461.182C376.009 451.417 381.688 438.375 382.235 424.628L386 330Z" fill="#265782"/>
<path d="M56 368H330L319.584 504.608C319.266 508.778 315.789 512 311.607 512H74.3932C70.2108 512 66.7343 508.778 66.4163 504.608L56 368Z" fill="url(#paint0_linear_52_250)"/>
<path opacity="0.9" d="M56.1214 73.6029C55.7813 62.3261 64.8303 53 76.1123 53H309.888C321.17 53 330.219 62.3261 329.879 73.6029L322.462 319.507C321.648 346.522 299.513 368 272.485 368H113.515C86.4875 368 64.3523 346.522 63.5375 319.507L56.1214 73.6029Z" fill="#121110"/>
<g filter="url(#filter0_i_52_250)">
<rect x="77" y="68" width="233" height="49" rx="5" fill="#3B3838"/>
</g>
<g filter="url(#filter1_i_52_250)">
<rect x="86" y="72" width="58" height="40" rx="2" fill="#9DA6AA"/>
</g>
<g filter="url(#filter2_i_52_250)">
<path d="M69.4048 134.389C69.1838 128.718 73.7217 124 79.3972 124H306.67C312.32 124 316.848 128.677 316.665 134.325L312.314 268.325C312.139 273.718 307.716 278 302.319 278H84.618C79.2466 278 74.8347 273.757 74.6256 268.389L69.4048 134.389Z" fill="#3B3838"/>
</g>
<ellipse cx="94" cy="336.5" rx="12" ry="11.5" fill="#0B0202"/>
<ellipse cx="49" cy="374.5" rx="3" ry="9.5" fill="#0B0202"/>
<ellipse cx="337" cy="373.5" rx="3" ry="9.5" fill="#0B0202"/>
<ellipse cx="124" cy="336.5" rx="12" ry="11.5" fill="#0B0202"/>
<ellipse cx="293" cy="336.5" rx="12" ry="11.5" fill="#0B0202"/>
<ellipse cx="263" cy="336.5" rx="12" ry="11.5" fill="#0B0202"/>
<ellipse cx="94" cy="336.5" rx="10" ry="9.5" fill="#666869"/>
<circle cx="86" cy="309" r="7" fill="#4A4B4B"/>
<circle cx="302" cy="309" r="7" fill="#4A4B4B"/>
<ellipse cx="48.5" cy="374" rx="1.5" ry="6" fill="#676869"/>
<ellipse cx="337.5" cy="373" rx="1.5" ry="6" fill="#676869"/>
<ellipse cx="124" cy="336.5" rx="10" ry="9.5" fill="#7B7D7E"/>
<ellipse cx="263" cy="336.5" rx="10" ry="9.5" fill="#7B7D7E"/>
<ellipse cx="293" cy="336.5" rx="10" ry="9.5" fill="#666869"/>
<line x1="62.4978" y1="363.919" x2="70.4978" y2="511.919" stroke="#282828" stroke-width="3"/>
<path d="M323 362L315.5 512" stroke="#282828" stroke-width="3"/>
<line x1="69" y1="367" x2="310" y2="367" stroke="#151515" stroke-width="2"/>
<line x1="55.3939" y1="361.081" x2="69.3939" y2="367.081" stroke="#151515" stroke-width="2"/>
<line x1="309.713" y1="367.042" x2="329.713" y2="361.042" stroke="#151515" stroke-width="2"/>
<path d="M329.39 361.208L387.412 317.535" stroke="black" stroke-width="2"/>
<path d="M56.3315 362.167L2 320" stroke="black" stroke-width="2"/>
<g filter="url(#filter3_i_52_250)">
<path d="M15 108.5L30.757 102.873C33.3329 101.953 36.0517 103.832 36.1017 106.566L39.7776 307.825C39.8685 312.801 34.2113 315.718 30.2104 312.758L3.93719 293.323C3.66458 293.122 3.51274 292.796 3.53383 292.457L15 108.5Z" fill="#343232"/>
</g>
<g filter="url(#filter4_i_52_250)">
<path d="M373 108.5L357.243 102.873C354.667 101.953 351.948 103.832 351.898 106.566L348.222 307.825C348.131 312.801 353.789 315.718 357.79 312.758L384.063 293.323C384.335 293.122 384.487 292.796 384.466 292.457L373 108.5Z" fill="#343232"/>
</g>
<rect y="109" width="27" height="43" rx="3" fill="#131313"/>
<path d="M2 142H23C24.1046 142 25 142.895 25 144V148C25 149.105 24.1046 150 23 150H4C2.89543 150 2 149.105 2 148V142Z" fill="#536C12"/>
<rect x="2" y="150" width="29" height="8" rx="2" transform="rotate(-90 2 150)" fill="#536C12"/>
<defs>
<filter id="filter0_i_52_250" x="77" y="68" width="233" height="53" filterUnits="userSpaceOnUse" color-interpolation-filters="sRGB">
<feFlood flood-opacity="0" result="BackgroundImageFix"/>
<feBlend mode="normal" in="SourceGraphic" in2="BackgroundImageFix" result="shape"/>
<feColorMatrix in="SourceAlpha" type="matrix" values="0 0 0 0 0 0 0 0 0 0 0 0 0 0 0 0 0 0 127 0" result="hardAlpha"/>
<feOffset dy="4"/>
<feGaussianBlur stdDeviation="6"/>
<feComposite in2="hardAlpha" operator="arithmetic" k2="-1" k3="1"/>
<feColorMatrix type="matrix" values="0 0 0 0 0 0 0 0 0 0 0 0 0 0 0 0 0 0 0.32 0"/>
<feBlend mode="normal" in2="shape" result="effect1_innerShadow_52_250"/>
</filter>
<filter id="filter1_i_52_250" x="86" y="72" width="58" height="44" filterUnits="userSpaceOnUse" color-interpolation-filters="sRGB">
<feFlood flood-opacity="0" result="BackgroundImageFix"/>
<feBlend mode="normal" in="SourceGraphic" in2="BackgroundImageFix" result="shape"/>
<feColorMatrix in="SourceAlpha" type="matrix" values="0 0 0 0 0 0 0 0 0 0 0 0 0 0 0 0 0 0 127 0" result="hardAlpha"/>
<feOffset dy="4"/>
<feGaussianBlur stdDeviation="2"/>
<feComposite in2="hardAlpha" operator="arithmetic" k2="-1" k3="1"/>
<feColorMatrix type="matrix" values="0 0 0 0 0 0 0 0 0 0 0 0 0 0 0 0 0 0 0.29 0"/>
<feBlend mode="normal" in2="shape" result="effect1_innerShadow_52_250"/>
</filter>
<filter id="filter2_i_52_250" x="69.397" y="124" width="247.273" height="158" filterUnits="userSpaceOnUse" color-interpolation-filters="sRGB">
<feFlood flood-opacity="0" result="BackgroundImageFix"/>
<feBlend mode="normal" in="SourceGraphic" in2="BackgroundImageFix" result="shape"/>
<feColorMatrix in="SourceAlpha" type="matrix" values="0 0 0 0 0 0 0 0 0 0 0 0 0 0 0 0 0 0 127 0" result="hardAlpha"/>
<feOffset dy="4"/>
<feGaussianBlur stdDeviation="6.5"/>
<feComposite in2="hardAlpha" operator="arithmetic" k2="-1" k3="1"/>
<feColorMatrix type="matrix" values="0 0 0 0 0 0 0 0 0 0 0 0 0 0 0 0 0 0 0.38 0"/>
<feBlend mode="normal" in2="shape" result="effect1_innerShadow_52_250"/>
</filter>
<filter id="filter3_i_52_250" x="3.53186" y="102.636" width="36.2468" height="215.31" filterUnits="userSpaceOnUse" color-interpolation-filters="sRGB">
<feFlood flood-opacity="0" result="BackgroundImageFix"/>
<feBlend mode="normal" in="SourceGraphic" in2="BackgroundImageFix" result="shape"/>
<feColorMatrix in="SourceAlpha" type="matrix" values="0 0 0 0 0 0 0 0 0 0 0 0 0 0 0 0 0 0 127 0" result="hardAlpha"/>
<feOffset dy="4"/>
<feGaussianBlur stdDeviation="2"/>
<feComposite in2="hardAlpha" operator="arithmetic" k2="-1" k3="1"/>
<feColorMatrix type="matrix" values="0 0 0 0 0 0 0 0 0 0 0 0 0 0 0 0 0 0 0.95 0"/>
<feBlend mode="normal" in2="shape" result="effect1_innerShadow_52_250"/>
</filter>
<filter id="filter4_i_52_250" x="348.221" y="102.636" width="36.2468" height="215.31" filterUnits="userSpaceOnUse" color-interpolation-filters="sRGB">
<feFlood flood-opacity="0" result="BackgroundImageFix"/>
<feBlend mode="normal" in="SourceGraphic" in2="BackgroundImageFix" result="shape"/>
<feColorMatrix in="SourceAlpha" type="matrix" values="0 0 0 0 0 0 0 0 0 0 0 0 0 0 0 0 0 0 127 0" result="hardAlpha"/>
<feOffset dy="4"/>
<feGaussianBlur stdDeviation="2"/>
<feComposite in2="hardAlpha" operator="arithmetic" k2="-1" k3="1"/>
<feColorMatrix type="matrix" values="0 0 0 0 0 0 0 0 0 0 0 0 0 0 0 0 0 0 0.95 0"/>
<feBlend mode="normal" in2="shape" result="effect1_innerShadow_52_250"/>
</filter>
<linearGradient id="paint0_linear_52_250" x1="193" y1="368" x2="193" y2="512" gradientUnits="userSpaceOnUse">
<stop stop-color="#386997"/>
<stop offset="1" stop-color="#265782"/>
</linearGradient>
</defs>
</svg>
